<?xml version="1.0" encoding="UTF-8"?>
<svg id="Laag_1" data-name="Laag 1" xmlns="http://www.w3.org/2000/svg" viewBox="0 0 87.62 132.38">
  <defs>
    <style>
      .cls-1 {
        fill: #fff;
      }

      .cls-1, .cls-2, .cls-3 {
        stroke-width: 0px;
      }

      .cls-2 {
        fill: #878787;
      }

      .cls-3 {
        fill: #55c3ec;
      }
    </style>
  </defs>
  <rect id="Achtergrond" class="cls-3" width="87.62" height="132.38"/>
  <path id="Vlam" class="cls-1" d="m47.61,103.19c2.18,2.67,2.04,6.23,1.99,7-1.33-.77-2.66-1.55-3.99-2.33-.66,2.33-1.33,4.67-1.99,7-.66-2.33-1.33-4.67-1.99-7-1.33.78-2.66,1.56-3.99,2.33-.05-.77-.19-4.33,1.99-7,.53-.64,1.91-2.33,3.99-2.33s3.46,1.69,3.99,2.33Z"/>
  <g id="Linker_arm" data-name="Linker arm">
    <path class="cls-1" d="m20.47,78.48c-.94,1.97-1.43,4.01-1.45,6.06.95.27,1.79.82,2.43,1.59.85,1.03,1.25,2.33,1.13,3.66-.05.52-.48.91-.99.91-.03,0-.07-.01-.1-.01-.55-.05-.95-.54-.9-1.09.07-.79-.17-1.57-.68-2.19s-1.23-1-2.03-1.07-1.58.17-2.19.68c-.62.51-1,1.23-1.07,2.03-.06.55-.53.95-1.09.9-.55-.05-.96-.54-.91-1.09.13-1.33.76-2.53,1.79-3.38.76-.63,1.66-1.01,2.62-1.12.04-2.3.59-4.56,1.63-6.74,1.49-3.11,3.76-5.55,6.09-7.42-.4,1.11-.7,2.28-.88,3.48-1.32,1.36-2.52,2.95-3.4,4.8h0Z"/>
  </g>
  <g id="Rechter_arm" data-name="Rechter arm">
    <path class="cls-1" d="m80.33,61.22c-.98.98-2.26,1.47-3.54,1.47-.95,0-1.9-.27-2.72-.81-1.5,1.74-3.37,3.12-5.57,4.14-2.33,1.08-4.77,1.59-7.09,1.76-.34-.67-.72-1.32-1.13-1.94,2.39-.07,4.95-.52,7.38-1.64,1.98-.92,3.67-2.17,4.98-3.74-1.3-1.94-1.1-4.59.62-6.31.39-.39,1.02-.39,1.41,0s.39,1.03,0,1.42c-1.17,1.17-1.17,3.07,0,4.24s3.07,1.17,4.24,0c.39-.39,1.03-.39,1.42,0s.39,1.02,0,1.41Z"/>
  </g>
  <g id="Lichaam">
    <g id="Buik">
      <g>
        <path class="cls-1" d="m30.43,64.58c-.47.51-.92,1.05-1.34,1.61.41-.56.85-1.1,1.34-1.61Z"/>
        <path class="cls-1" d="m61.59,75.86c0-.19-.02-.37-.04-.55-.04-.42-.09-.83-.16-1.24-.04-.26-.09-.53-.14-.79-.09-.44-.19-.87-.32-1.3-.07-.23-.14-.47-.21-.7-.15-.47-.33-.93-.52-1.39-.15-.35-.31-.69-.48-1.03-.17-.34-.36-.68-.55-1.02-.1-.18-.21-.36-.32-.53-.11-.18-.22-.35-.34-.52-.23-.34-.47-.67-.72-.99h-.01s-.02-.04-.03-.05c-.02-.02-.03-.04-.05-.05-.11-.15-.22-.29-.34-.43-.33-.39-.67-.76-1.03-1.12l-1.1-1.01c-.12-.11-.25-.22-.39-.32l-1.48-1.07-1.88-1.06-1.71-.73-3.37-.87c-.26-.04-.52-.08-.78-.11v-2.02c-.68-.06-1.37-.1-2.06-.1-.65,0-1.3.03-1.94.09v2.01c-.46.05-.92.12-1.37.21-.21.03-.42.08-.63.13-.39.08-.77.18-1.15.3-.18.05-.36.1-.54.17-.77.25-1.53.55-2.25.91-.16.08-.32.15-.47.24-.09.05-.19.1-.28.15-.17.09-.34.19-.51.29h-.01c-.13.08-.26.16-.39.25-.35.22-.7.45-1.04.7-.42.31-.83.63-1.23.99-.2.17-.39.35-.58.53-.25.24-.5.49-.74.75-.47.51-.92,1.05-1.34,1.61-.1.14-.2.28-.3.43-.1.14-.19.29-.29.44-.17.26-.34.53-.49.81-.1.19-.1.19-.01,0,.14-.28-.03.03-.03.05,0,0-.02,0,0,.02h-.01c-.32.56-.6,1.13-.86,1.72-.11.26-.21.51-.31.77-.12.32-.23.64-.33.96-.03.07-.05.14-.06.2-.08.24-.14.47-.2.71-.05.17-.09.35-.13.52-.01.02-.01.05-.01.07-.04.15-.07.3-.1.46-.09.49-.17.98-.22,1.47-.01.1-.02.21-.03.31-.02.28-.04.55-.06.83-.01.27-.02.55-.02.83v14.09c0,2.19,1.78,3.97,3.97,3.97h28.06c2.19,0,3.97-1.78,3.97-3.97v-13.97c0-.36-.01-.71-.03-1.06h-.01Zm-12.87,6.8h-2.51c-.14,0-.21-.08-.21-.25,0-.48.02-1.19.06-2.15.03-.96.05-1.67.05-2.15,0-.14-.02-.21-.06-.22-.06.03-.37.76-.96,2.19-.34.85-.68,1.69-1.02,2.52-.05.11-.11.18-.18.2h-.28c-.25,0-.39-.04-.44-.14-.26-.52-.59-1.28-1.01-2.27-.44-1.05-.78-1.81-1-2.28,0-.03-.03-.05-.06-.08-.04.04-.05.11-.05.21,0,.46.01,1.16.03,2.08.02.93.04,1.63.04,2.09,0,.17-.07.25-.2.25h-2.38c-.09,0-.15-.01-.17-.05-.02-.03-.03-.08-.03-.16,0-.51.02-1.29.07-2.32.05-1.04.08-1.81.08-2.33,0-.55-.03-1.58-.07-3.09-.01-.39-.03-.98-.07-1.75v-.12c-.01-.1.09-.15.29-.15.26,0,.66,0,1.18-.02s.91-.02,1.17-.02c.05,0,.12.09.22.29l2.07,4.56c.15.3.27.46.37.46.05,0,.17-.18.34-.53.47-1,1.18-2.5,2.12-4.5.08-.19.17-.28.26-.28.14,0,.35.01.62.02.28.02.49.02.63.02.12,0,.3,0,.55-.03.24-.02.42-.04.54-.04.14,0,.21.06.21.17,0,.56-.02,1.4-.06,2.51s-.06,1.94-.06,2.5c0,.52.02,1.29.07,2.32.04,1.04.06,1.81.06,2.32,0,.15-.07.22-.21.22h0Z"/>
        <path class="cls-1" d="m49.77,59.96l-3.37-.87c1.16.18,2.29.47,3.37.87Z"/>
        <path class="cls-1" d="m51.48,60.69l-1.71-.73c.58.21,1.15.45,1.71.73Z"/>
        <path class="cls-1" d="m53.36,61.75l-1.88-1.06c.65.31,1.28.67,1.88,1.06Z"/>
      </g>
    </g>
    <path class="cls-1" d="m53.62,96.86c0,.55-.22,1.05-.59,1.41-.36.37-.86.59-1.41.59h-16c-1.1,0-2-.9-2-2h20Z"/>
    <path class="cls-1" d="m43.56,56.86c-.65,0-1.3.03-1.94.09v-.09h1.94Z"/>
    <path class="cls-1" d="m45.62,56.86v.1c-.68-.06-1.37-.1-2.06-.1h2.06Z"/>
  </g>
  <g id="Hoofd">
    <path class="cls-1" d="m75.62,40.86c0,2.21-1.79,4-4,4v-8c2.21,0,4,1.79,4,4Z"/>
    <path class="cls-1" d="m15.62,36.86v8c-2.21,0-4-1.79-4-4s1.79-4,4-4Z"/>
    <path class="cls-1" d="m37.62,12.87c0-.55.45-1,1-1h.38c.38,0,.73-.21.9-.55l.95-1.91c.34-.68,1.3-.74,1.73-.1l2.36,3.55c.35.52,1.1.6,1.54.15l.85-.85c.18-.18.44-.29.7-.29h.59c.55,0,1,.45,1,1s-.45,1-1,1h-.59c-.26,0-.52.11-.7.29l-.85.85c-.44.45-1.19.37-1.54-.15l-2.36-3.55c-.43-.64-1.39-.58-1.73.1l-.95,1.91c-.17.34-.52.55-.9.55h-.38c-.55,0-1-.45-1-1Z"/>
    <path class="cls-1" d="m51.62,11.97c0-2.21,1.79-4,4-4s4,1.79,4,4c0,1.86-1.27,3.43-3,3.87v5.18h-2v-5.18c-1.73-.44-3-2.01-3-3.87Z"/>
    <path class="cls-1" d="m27.62,11.81c0-2.21,1.79-4,4-4s4,1.79,4,4c0,1.86-1.27,3.43-3,3.87v5.18h-2v-5.18c-1.73-.44-3-2.01-3-3.87Z"/>
    <path class="cls-1" d="m64.51,22.86H22.73c-2.82,0-5.11,2.29-5.11,5.11v21.78c0,2.82,2.29,5.11,5.11,5.11h41.78c2.82,0,5.11-2.29,5.11-5.11v-21.78c0-2.82-2.29-5.11-5.11-5.11Zm-28.89,26h-2v-2h2v2Zm6,0h-2v-2h2v2Zm-12-8c-3.3,0-6-2.7-6-6,0-1.65.68-3.15,1.76-4.24,1.09-1.08,2.59-1.76,4.24-1.76h18l-6,12h-12Zm20-12h2l-6,12h-2l6-12Zm-2,20h-2v-2h2v2Zm6,0h-2v-2h2v2Zm8.24-9.76c-1.09,1.08-2.59,1.76-4.24,1.76h-6l6-12c3.3,0,6,2.7,6,6,0,1.65-.68,3.15-1.76,4.24Z"/>
  </g>
  <ellipse id="Schaduw" class="cls-2" cx="43.62" cy="118.9" rx="17.14" ry="2.74"/>
</svg>